<svg xmlns="http://www.w3.org/2000/svg" xmlns:xlink="http://www.w3.org/1999/xlink" width="2000" zoomAndPan="magnify" viewBox="0 0 1500 1499.999933" height="2000" preserveAspectRatio="xMidYMid meet" version="1.0"><defs><g/><clipPath id="01c7c8d117"><path d="M 0 177 L 751 177 L 751 1386 L 0 1386 Z M 0 177 " clip-rule="nonzero"/></clipPath><clipPath id="8f87705aa6"><rect x="0" width="1500" y="0" height="1500"/></clipPath></defs><g transform="matrix(1, 0, 0, 1, 0, 0.000000000000112861)"><g clip-path="url(#8f87705aa6)"><g clip-path="url(#01c7c8d117)"><g fill="#ffffff" fill-opacity="1"><g transform="translate(72.367124, 1327.477464)"><g><path d="M 82.273438 57.136719 L 80.75 57.136719 C 57.808594 57.136719 37.828125 49.335938 20.8125 33.738281 C 2.367188 16.828125 -6.855469 -4.066406 -6.855469 -28.949219 L 50.277344 -28.949219 L -6.835938 -27.363281 C -7.894531 -65.449219 -6.859375 -114.457031 -3.730469 -174.382812 C -0.621094 -233.992188 5.066406 -299.4375 13.332031 -370.722656 L 70.085938 -364.140625 L 90.148438 -310.644531 L 41.390625 -292.359375 C 26.800781 -286.890625 14.523438 -284.152344 4.570312 -284.152344 L 0 -284.152344 C -19.628906 -284.152344 -36.894531 -289.644531 -51.796875 -300.625 C -65.984375 -311.078125 -76.304688 -325.335938 -82.753906 -343.402344 L -28.949219 -362.617188 L -69.351562 -322.21875 C -81.523438 -334.390625 -87.609375 -350.902344 -87.609375 -371.761719 C -87.609375 -391.386719 -82.117188 -408.652344 -71.136719 -423.554688 C -60.683594 -437.746094 -46.421875 -448.066406 -28.359375 -454.515625 L -27.277344 -454.902344 L -26.183594 -455.242188 C -10.660156 -460.09375 3.851562 -464.929688 17.351562 -469.753906 C 31.136719 -474.675781 44.417969 -479.59375 57.195312 -484.507812 L 77.703125 -431.179688 L 21.007812 -438.269531 C 26.171875 -479.558594 33.375 -528.972656 42.621094 -586.515625 C 51.988281 -644.78125 63.941406 -704.5625 78.484375 -765.855469 C 93.339844 -828.457031 111.429688 -886.683594 132.757812 -940.535156 C 155.355469 -997.589844 182.101562 -1044.480469 213.007812 -1081.214844 C 251.339844 -1126.78125 296.640625 -1149.5625 348.90625 -1149.5625 C 362.519531 -1149.5625 380.589844 -1146.25 403.117188 -1139.625 L 404.296875 -1139.277344 L 405.460938 -1138.878906 C 465.03125 -1118.539062 506.417969 -1073.21875 529.621094 -1002.921875 C 548.410156 -946.007812 560.5 -876.535156 565.898438 -794.503906 C 571.042969 -716.269531 574.132812 -630.925781 575.160156 -538.46875 L 518.027344 -537.832031 L 510.476562 -594.46875 L 582.796875 -604.113281 L 589.636719 -604.113281 C 613.394531 -604.113281 633.246094 -596.9375 649.1875 -582.589844 C 665.042969 -568.320312 674.277344 -549.410156 676.894531 -525.859375 L 677.246094 -522.714844 L 677.246094 -514.980469 C 677.246094 -491.792969 670.234375 -472.363281 656.214844 -456.695312 C 642.28125 -441.125 623.839844 -431.988281 600.882812 -429.285156 L 526.496094 -420.175781 L 519.550781 -476.890625 L 576.6875 -476.890625 L 576.6875 -409.851562 C 576.6875 -356.660156 576.175781 -303.726562 575.152344 -251.046875 C 574.128906 -198.332031 572.59375 -146.882812 570.542969 -96.703125 L 513.457031 -99.035156 L 570.59375 -99.035156 C 570.59375 -73.242188 560.546875 -51.847656 540.460938 -34.847656 C 523.207031 -20.25 503.539062 -12.949219 481.460938 -12.949219 L 479.957031 -12.949219 L 478.457031 -13.027344 C 453.109375 -14.363281 432.75 -23.523438 417.378906 -40.511719 C 402.710938 -56.726562 395.375 -77.25 395.375 -102.082031 L 395.375 -103.222656 L 395.421875 -104.367188 C 397.4375 -154.773438 398.949219 -205.179688 399.957031 -255.585938 C 400.964844 -305.992188 401.46875 -355.890625 401.46875 -405.28125 L 401.46875 -467.746094 L 458.605469 -467.746094 L 467.292969 -411.277344 C 416.308594 -403.433594 367.847656 -393.644531 321.902344 -381.914062 C 275.652344 -370.105469 219.230469 -352.773438 152.628906 -329.910156 L 134.078125 -383.949219 L 190.773438 -376.863281 C 181.769531 -304.84375 175.273438 -238.410156 171.285156 -177.570312 C 167.367188 -117.855469 166.367188 -69.824219 168.28125 -33.476562 L 168.359375 -31.976562 L 168.359375 -30.472656 C 168.359375 -7.53125 160.558594 12.449219 144.960938 29.464844 C 128.050781 47.914062 107.15625 57.136719 82.273438 57.136719 Z M 82.273438 -57.136719 C 73.644531 -57.136719 66.460938 -54.007812 60.726562 -47.75 C 56.300781 -42.921875 54.085938 -37.164062 54.085938 -30.472656 L 111.222656 -30.472656 L 54.167969 -27.46875 C 52.015625 -68.316406 53.046875 -120.839844 57.257812 -185.046875 C 61.394531 -248.128906 68.101562 -316.789062 77.382812 -391.035156 L 81.804688 -426.414062 L 115.527344 -437.988281 C 185.035156 -461.851562 244.40625 -480.066406 293.632812 -492.636719 C 343.171875 -505.285156 395.265625 -515.8125 449.917969 -524.21875 L 515.742188 -534.347656 L 515.742188 -405.28125 C 515.742188 -355.125 515.230469 -304.46875 514.207031 -253.300781 C 513.183594 -202.132812 511.648438 -150.964844 509.601562 -99.796875 L 452.511719 -102.082031 L 509.648438 -102.082031 C 509.648438 -102.796875 509.390625 -103.984375 508.871094 -105.644531 C 507.582031 -109.78125 505.332031 -113.625 502.117188 -117.179688 C 498.65625 -121.003906 494.675781 -123.828125 490.175781 -125.640625 C 487.894531 -126.5625 485.992188 -127.0625 484.464844 -127.144531 L 481.460938 -70.085938 L 481.460938 -127.222656 C 475.632812 -127.222656 470.695312 -125.507812 466.644531 -122.082031 C 459.761719 -116.257812 456.320312 -108.574219 456.320312 -99.035156 L 456.320312 -100.199219 L 456.367188 -101.363281 C 458.382812 -150.730469 459.894531 -201.363281 460.902344 -253.265625 C 461.910156 -305.207031 462.414062 -357.402344 462.414062 -409.851562 L 462.414062 -527.457031 L 587.53125 -542.777344 C 581.84375 -542.105469 576.351562 -538.8125 571.054688 -532.890625 C 565.667969 -526.867188 562.972656 -520.898438 562.972656 -514.980469 L 562.972656 -519.550781 L 620.109375 -519.550781 L 563.324219 -513.242188 C 563.90625 -507.972656 567.046875 -502.777344 572.746094 -497.652344 C 578.53125 -492.441406 584.160156 -489.839844 589.636719 -489.839844 L 586.589844 -489.839844 L 586.589844 -546.976562 L 594.140625 -490.339844 L 461.613281 -472.671875 L 460.894531 -537.199219 C 459.890625 -627.574219 456.882812 -710.84375 451.871094 -787.003906 C 447.113281 -859.363281 436.859375 -919.394531 421.109375 -967.101562 C 409.78125 -1001.425781 392.253906 -1022.640625 368.535156 -1030.738281 L 386.996094 -1084.808594 L 370.875 -1029.996094 C 358.871094 -1033.527344 351.546875 -1035.292969 348.90625 -1035.292969 C 332.105469 -1035.292969 315.953125 -1026.078125 300.449219 -1007.652344 C 277.519531 -980.394531 257.035156 -943.996094 239 -898.460938 C 219.699219 -849.722656 203.253906 -796.726562 189.667969 -739.472656 C 175.773438 -680.90625 164.367188 -623.878906 155.445312 -568.382812 C 146.410156 -512.160156 139.394531 -464.0625 134.398438 -424.09375 L 130.152344 -390.136719 L 98.214844 -377.855469 C 84.582031 -372.609375 70.4375 -367.371094 55.785156 -362.136719 C 40.84375 -356.800781 24.882812 -351.480469 7.902344 -346.175781 L -9.140625 -400.710938 L 10.074219 -346.902344 C 13.917969 -348.273438 17.511719 -351.230469 20.859375 -355.769531 C 24.726562 -361.023438 26.664062 -366.351562 26.664062 -371.761719 C 26.664062 -372.375 26.53125 -373.472656 26.265625 -375.058594 C 24.515625 -385.578125 19.574219 -394.898438 11.453125 -403.019531 L 20.539062 -393.933594 L 24.859375 -381.835938 C 23.484375 -385.679688 20.53125 -389.273438 15.992188 -392.617188 C 10.738281 -396.488281 5.40625 -398.425781 0 -398.425781 L 4.570312 -398.425781 C 0.992188 -398.425781 -1.859375 -398.132812 -3.988281 -397.554688 C -2.894531 -397.851562 -1.144531 -398.453125 1.269531 -399.355469 L 137.617188 -450.488281 L 126.839844 -357.5625 C 118.855469 -288.675781 113.367188 -225.628906 110.382812 -168.429688 C 107.417969 -111.542969 106.417969 -65.578125 107.394531 -30.535156 L 107.414062 -29.742188 L 107.414062 -28.949219 C 107.414062 -37.578125 104.285156 -44.761719 98.027344 -50.496094 C 93.199219 -54.921875 87.441406 -57.136719 80.75 -57.136719 Z M 125.96875 -505.457031 C 187.664062 -524.996094 242.253906 -541.214844 289.738281 -554.117188 C 338.640625 -567.40625 391.628906 -578.277344 448.710938 -586.734375 L 457.082031 -530.214844 L 399.960938 -529 C 397.945312 -623.6875 394.675781 -706.949219 390.15625 -778.785156 C 385.832031 -847.472656 380.132812 -894.648438 373.054688 -920.300781 C 366.972656 -942.351562 359.707031 -958.738281 351.257812 -969.460938 C 349.441406 -971.765625 348.113281 -973.148438 347.273438 -973.609375 C 348.226562 -973.085938 349.28125 -972.824219 350.429688 -972.824219 C 351.148438 -972.824219 351.8125 -972.914062 352.429688 -973.097656 C 352.558594 -973.136719 352.644531 -973.164062 352.683594 -973.183594 C 352.519531 -973.109375 352.304688 -972.992188 352.035156 -972.828125 C 348.882812 -970.898438 345.132812 -967.125 340.789062 -961.503906 C 326.886719 -943.511719 313.824219 -918.800781 301.597656 -887.363281 C 288.117188 -852.691406 275.796875 -814.75 264.648438 -773.542969 C 253.3125 -731.644531 243.453125 -689.503906 235.074219 -647.117188 C 226.550781 -604.003906 219.289062 -564.441406 213.289062 -528.441406 C 207.269531 -492.3125 202.765625 -463.800781 199.78125 -442.90625 L 143.21875 -450.988281 Z M 160.46875 -396.519531 L 73.800781 -369.074219 L 86.65625 -459.070312 C 89.765625 -480.835938 94.40625 -510.222656 100.574219 -547.226562 C 106.761719 -584.359375 114.226562 -625.042969 122.972656 -669.277344 C 131.863281 -714.246094 142.320312 -758.953125 154.34375 -803.390625 C 166.554688 -848.523438 180.140625 -890.316406 195.097656 -928.78125 C 211.3125 -970.476562 229.738281 -1004.675781 250.371094 -1031.375 C 279.074219 -1068.523438 312.425781 -1087.09375 350.429688 -1087.09375 C 386.179688 -1087.09375 416.375 -1071.457031 441.019531 -1040.179688 C 458.976562 -1017.382812 473.042969 -987.554688 483.210938 -950.691406 C 492.386719 -917.433594 499.382812 -862.523438 504.203125 -785.960938 C 508.824219 -712.546875 512.15625 -627.703125 514.207031 -531.429688 L 515.277344 -481.078125 L 465.457031 -473.695312 C 412.835938 -465.902344 364.253906 -455.949219 319.703125 -443.84375 C 273.742188 -431.355469 220.660156 -415.578125 160.46875 -396.519531 Z M 160.46875 -396.519531 "/></g></g></g></g><g fill="#ffffff" fill-opacity="1"><g transform="translate(722.947021, 1327.477464)"><g><path d="M -74.355469 7.925781 C -86.949219 -0.46875 -96.644531 -11.085938 -103.441406 -23.925781 C -110.152344 -36.605469 -113.507812 -50.46875 -113.507812 -65.515625 C -113.507812 -84.304688 -108.175781 -100.8125 -97.511719 -115.03125 L -51.800781 -80.75 L -100.796875 -110.148438 C -92.757812 -123.542969 -82.402344 -133.96875 -69.726562 -141.425781 C -56.46875 -149.222656 -41.859375 -153.125 -25.902344 -153.125 C -6.09375 -153.125 10.917969 -147.789062 25.140625 -137.125 L -9.140625 -91.417969 L 21.898438 -139.386719 C 33.648438 -131.785156 45.972656 -126.453125 58.875 -123.398438 C 73.847656 -119.851562 89.261719 -118.082031 105.128906 -118.082031 C 148.351562 -118.082031 192.878906 -127.554688 238.707031 -146.503906 C 287.210938 -166.558594 330.917969 -190.945312 369.824219 -219.660156 C 447.496094 -276.988281 503.328125 -341.230469 537.320312 -412.386719 C 571.6875 -484.335938 588.875 -553.574219 588.875 -620.109375 C 588.875 -675.722656 578.1875 -726.644531 556.820312 -772.875 C 536.332031 -817.1875 507.054688 -852.378906 468.984375 -878.449219 C 431.992188 -903.785156 386.886719 -916.449219 333.671875 -916.449219 C 320.332031 -916.449219 306.992188 -915.78125 293.648438 -914.449219 C 281.804688 -913.265625 270.414062 -911.109375 259.472656 -907.984375 L 243.777344 -962.921875 L 300.027344 -952.894531 C 264.050781 -751.03125 246.0625 -546.148438 246.0625 -338.242188 C 246.0625 -315.277344 246.3125 -291.804688 246.8125 -267.820312 C 247.3125 -243.875 248.058594 -220.433594 249.054688 -197.503906 L 249.109375 -196.261719 L 249.109375 -195.023438 C 249.109375 -170.191406 241.777344 -149.667969 227.105469 -133.453125 C 211.734375 -116.464844 191.375 -107.304688 166.027344 -105.96875 L 164.527344 -105.890625 L 161.503906 -105.890625 C 137.597656 -105.890625 117.023438 -114.515625 99.769531 -131.765625 C 82.519531 -149.015625 73.894531 -169.59375 73.894531 -193.5 L 131.03125 -193.5 L 73.949219 -191.015625 C 72.914062 -214.792969 72.140625 -238.566406 71.621094 -262.34375 C 71.105469 -286.117188 70.847656 -309.894531 70.847656 -333.671875 C 70.847656 -540.988281 87.867188 -746.757812 121.902344 -950.984375 L 178.261719 -941.589844 L 200.523438 -888.96875 C 178.265625 -879.554688 158.285156 -868.3125 140.582031 -855.246094 C 125.71875 -844.273438 114.183594 -831.609375 105.980469 -817.253906 L 104.683594 -814.984375 L 103.179688 -812.835938 C 94.59375 -800.566406 84.175781 -791.03125 71.933594 -784.230469 C 58.734375 -776.898438 44.40625 -773.230469 28.949219 -773.230469 C 14.335938 -773.230469 -0.0351562 -777.46875 -14.160156 -785.945312 L 15.234375 -834.9375 L -5.984375 -781.886719 C -23.148438 -788.753906 -36.300781 -799.953125 -45.4375 -815.492188 C -53.238281 -828.75 -57.136719 -843.863281 -57.136719 -860.839844 C -57.136719 -875.925781 -54.109375 -889.519531 -48.058594 -901.628906 L -47.1875 -903.367188 L -46.199219 -905.042969 C -21.417969 -947.171875 11.152344 -981.589844 51.511719 -1008.289062 C 88.976562 -1033.074219 129.554688 -1052.363281 173.246094 -1066.160156 L 190.449219 -1011.675781 L 134.425781 -1022.882812 C 136.335938 -1032.4375 138.003906 -1041.480469 139.425781 -1050.019531 C 141.050781 -1059.765625 142.9375 -1070.019531 145.089844 -1080.777344 L 145.355469 -1082.113281 L 145.6875 -1083.429688 C 150.835938 -1104.03125 160.96875 -1120.378906 176.089844 -1132.472656 C 191.601562 -1144.882812 210.101562 -1151.085938 231.589844 -1151.085938 C 257.378906 -1151.085938 278.777344 -1141.042969 295.773438 -1120.953125 C 310.375 -1103.699219 317.671875 -1084.035156 317.671875 -1061.957031 C 317.671875 -1040.667969 314 -1021.757812 306.652344 -1005.230469 L 254.441406 -1028.4375 L 246.363281 -1084.996094 C 261.089844 -1087.101562 275.3125 -1088.945312 289.03125 -1090.527344 C 304.410156 -1092.300781 319.292969 -1093.191406 333.671875 -1093.191406 C 422.617188 -1093.191406 499.875 -1070.835938 565.449219 -1026.125 C 629.769531 -982.273438 679.378906 -923.992188 714.277344 -851.28125 C 748.503906 -779.984375 765.613281 -702.417969 765.613281 -618.585938 C 765.613281 -524.554688 742.644531 -429.9375 696.707031 -334.742188 C 650.414062 -238.8125 576.195312 -153.503906 474.046875 -78.8125 C 423.675781 -41.582031 366.589844 -9.878906 302.792969 16.292969 C 236.421875 43.523438 170.535156 57.136719 105.128906 57.136719 C 39.660156 57.136719 -19.460938 41.183594 -72.222656 9.277344 L -73.304688 8.625 Z M -10.96875 -87.152344 L -42.660156 -39.613281 L -13.097656 -88.507812 C 21.492188 -67.59375 60.898438 -57.136719 105.128906 -57.136719 C 155.515625 -57.136719 206.945312 -67.898438 259.417969 -89.425781 C 314.460938 -112.007812 363.523438 -139.21875 406.597656 -171.058594 C 493.378906 -234.507812 555.773438 -305.625 593.789062 -384.402344 C 632.160156 -463.914062 651.34375 -541.972656 651.34375 -618.585938 C 651.34375 -685.082031 637.980469 -746.164062 611.261719 -801.832031 C 585.214844 -856.09375 548.488281 -899.386719 501.078125 -931.710938 C 454.917969 -963.183594 399.117188 -978.917969 333.671875 -978.917969 C 323.671875 -978.917969 313.15625 -978.28125 302.128906 -977.007812 C 289.4375 -975.542969 276.234375 -973.832031 262.523438 -971.875 L 160.289062 -957.269531 L 202.230469 -1051.640625 C 203.011719 -1053.394531 203.402344 -1056.835938 203.402344 -1061.957031 C 203.402344 -1056.128906 205.113281 -1051.191406 208.539062 -1047.140625 C 214.367188 -1040.257812 222.046875 -1036.816406 231.589844 -1036.816406 C 236.824219 -1036.816406 242.121094 -1038.957031 247.472656 -1043.242188 C 252.433594 -1047.210938 255.460938 -1051.367188 256.546875 -1055.714844 L 201.117188 -1069.574219 L 257.144531 -1058.367188 C 255.230469 -1048.8125 253.566406 -1039.765625 252.140625 -1031.230469 C 250.515625 -1021.484375 248.628906 -1011.230469 246.476562 -1000.472656 L 239.855469 -967.359375 L 207.65625 -957.191406 C 174.152344 -946.613281 143.117188 -931.875 114.5625 -912.984375 C 88.898438 -896.003906 68.140625 -874.046875 52.292969 -847.105469 L 3.046875 -876.074219 L 54.152344 -850.523438 C 56.140625 -854.503906 57.136719 -857.941406 57.136719 -860.839844 C 57.136719 -864.609375 55.777344 -868.804688 53.054688 -873.429688 C 48.996094 -880.332031 43.460938 -885.183594 36.457031 -887.988281 L 40.707031 -886.285156 L 44.632812 -883.929688 C 40.664062 -886.3125 35.4375 -887.503906 28.949219 -887.503906 C 24.664062 -887.503906 20.496094 -886.375 16.4375 -884.121094 C 13.335938 -882.398438 11.042969 -880.480469 9.566406 -878.367188 L 56.375 -845.601562 L 6.765625 -873.949219 C 22.941406 -902.257812 44.925781 -926.667969 72.722656 -947.183594 C 97.679688 -965.605469 125.4375 -981.28125 156 -994.210938 L 251.703125 -1034.699219 L 234.621094 -932.195312 C 201.621094 -734.191406 185.117188 -534.679688 185.117188 -333.671875 C 185.117188 -310.722656 185.367188 -287.773438 185.867188 -264.824219 C 186.367188 -241.878906 187.113281 -218.929688 188.113281 -195.980469 L 188.167969 -194.738281 L 188.167969 -193.5 C 188.167969 -201.148438 185.636719 -207.507812 180.574219 -212.570312 C 175.511719 -217.632812 169.152344 -220.160156 161.503906 -220.160156 L 163.027344 -220.160156 L 163.027344 -163.027344 L 160.023438 -220.082031 C 158.496094 -220.003906 156.589844 -219.503906 154.3125 -218.582031 C 149.8125 -216.765625 145.832031 -213.945312 142.371094 -210.121094 C 139.152344 -206.566406 136.902344 -202.722656 135.613281 -198.585938 C 135.097656 -196.925781 134.839844 -195.738281 134.839844 -195.023438 L 191.976562 -195.023438 L 134.894531 -192.539062 C 133.859375 -216.332031 133.082031 -240.632812 132.566406 -265.441406 C 132.050781 -290.214844 131.792969 -314.484375 131.792969 -338.242188 C 131.792969 -552.882812 150.371094 -764.449219 187.527344 -972.945312 L 193.785156 -1008.058594 L 228.082031 -1017.859375 C 245.582031 -1022.859375 263.644531 -1026.289062 282.277344 -1028.152344 C 299.402344 -1029.867188 316.535156 -1030.722656 333.671875 -1030.722656 C 410.46875 -1030.722656 477.097656 -1011.394531 533.550781 -972.734375 C 588.925781 -934.8125 631.257812 -884.175781 660.542969 -820.820312 C 688.945312 -759.382812 703.144531 -692.476562 703.144531 -620.109375 C 703.144531 -536.3125 682.242188 -450.652344 640.429688 -363.128906 C 598.242188 -274.8125 530.660156 -196.34375 437.6875 -127.722656 C 391.269531 -93.460938 339.5 -64.523438 282.367188 -40.902344 C 222.558594 -16.171875 163.480469 -3.808594 105.128906 -3.808594 C 80.363281 -3.808594 56.167969 -6.605469 32.539062 -12.203125 C 6.84375 -18.289062 -17.394531 -28.703125 -40.179688 -43.445312 L -41.839844 -44.519531 L -43.421875 -45.707031 C -37.328125 -41.136719 -31.488281 -38.851562 -25.902344 -38.851562 C -21.117188 -38.851562 -16.410156 -40.210938 -11.789062 -42.929688 C -7.746094 -45.308594 -4.75 -48.117188 -2.808594 -51.355469 L -4.324219 -48.828125 L -6.09375 -46.46875 C -1.523438 -52.5625 0.761719 -58.914062 0.761719 -65.515625 C 0.761719 -69.390625 -0.308594 -73.347656 -2.449219 -77.394531 C -4.675781 -81.597656 -7.515625 -84.851562 -10.96875 -87.152344 Z M -10.96875 -87.152344 "/></g></g></g><g fill="#000000" fill-opacity="1"><g transform="translate(72.367124, 1327.477464)"><g><path d="M 82.28125 0 L 80.75 0 C 72.625 0 65.515625 -2.789062 59.421875 -8.375 C 53.328125 -13.96875 50.28125 -20.828125 50.28125 -28.953125 C 49.257812 -65.515625 50.269531 -113 53.3125 -171.40625 C 56.363281 -229.8125 61.957031 -294.054688 70.09375 -364.140625 C 45.707031 -355.003906 29.453125 -348.910156 21.328125 -345.859375 C 13.203125 -342.804688 7.617188 -341.28125 4.578125 -341.28125 L 0 -341.28125 C -14.21875 -341.28125 -23.867188 -348.394531 -28.953125 -362.625 C -29.960938 -363.632812 -30.46875 -366.679688 -30.46875 -371.765625 C -30.46875 -385.984375 -23.359375 -395.628906 -9.140625 -400.703125 C 7.105469 -405.785156 22.34375 -410.863281 36.5625 -415.9375 C 50.78125 -421.019531 64.492188 -426.101562 77.703125 -431.1875 C 82.785156 -471.8125 89.894531 -520.5625 99.03125 -577.4375 C 108.175781 -634.320312 119.859375 -692.726562 134.078125 -752.65625 C 148.296875 -812.59375 165.5625 -868.207031 185.875 -919.5 C 206.195312 -970.789062 229.816406 -1012.429688 256.734375 -1044.421875 C 283.648438 -1076.421875 314.375 -1092.421875 348.90625 -1092.421875 C 357.03125 -1092.421875 369.726562 -1089.882812 387 -1084.8125 C 428.644531 -1070.59375 458.097656 -1037.328125 475.359375 -985.015625 C 492.628906 -932.703125 503.800781 -867.945312 508.875 -790.75 C 513.957031 -713.550781 517.007812 -629.242188 518.03125 -537.828125 L 586.59375 -546.96875 L 589.640625 -546.96875 C 607.921875 -546.96875 618.078125 -537.828125 620.109375 -519.546875 L 620.109375 -514.984375 C 620.109375 -497.710938 611.472656 -488.0625 594.203125 -486.03125 L 519.546875 -476.890625 L 519.546875 -409.84375 C 519.546875 -357.03125 519.035156 -304.46875 518.015625 -252.15625 C 517.003906 -199.84375 515.484375 -148.800781 513.453125 -99.03125 C 513.453125 -90.90625 510.148438 -84.050781 503.546875 -78.46875 C 496.953125 -72.882812 489.585938 -70.09375 481.453125 -70.09375 C 462.160156 -71.101562 452.515625 -81.765625 452.515625 -102.078125 C 454.546875 -152.867188 456.066406 -203.65625 457.078125 -254.4375 C 458.097656 -305.226562 458.609375 -355.507812 458.609375 -405.28125 L 458.609375 -467.75 C 405.785156 -459.625 355.503906 -449.46875 307.765625 -437.28125 C 260.023438 -425.09375 202.128906 -407.316406 134.078125 -383.953125 C 124.929688 -310.816406 118.328125 -243.269531 114.265625 -181.3125 C 110.203125 -119.351562 109.1875 -69.070312 111.21875 -30.46875 C 111.21875 -22.34375 108.425781 -15.234375 102.84375 -9.140625 C 97.257812 -3.046875 90.40625 0 82.28125 0 Z M 143.21875 -450.984375 C 204.164062 -470.285156 258 -486.285156 304.71875 -498.984375 C 351.445312 -511.679688 402.234375 -522.09375 457.078125 -530.21875 C 455.046875 -625.695312 451.742188 -709.75 447.171875 -782.375 C 442.609375 -855 436.265625 -906.039062 428.140625 -935.5 C 420.015625 -964.957031 409.347656 -988.0625 396.140625 -1004.8125 C 382.929688 -1021.570312 367.695312 -1029.953125 350.4375 -1029.953125 C 331.132812 -1029.953125 312.847656 -1018.78125 295.578125 -996.4375 C 278.304688 -974.09375 262.5625 -944.632812 248.34375 -908.0625 C 234.125 -871.5 221.171875 -831.632812 209.484375 -788.46875 C 197.804688 -745.300781 187.648438 -701.878906 179.015625 -658.203125 C 170.390625 -614.523438 163.03125 -574.398438 156.9375 -537.828125 C 150.84375 -501.265625 146.269531 -472.316406 143.21875 -450.984375 Z M 143.21875 -450.984375 "/></g></g></g><g fill="#000000" fill-opacity="1"><g transform="translate(722.947021, 1327.477464)"><g><path d="M -42.65625 -39.609375 C -51.800781 -45.703125 -56.375 -54.335938 -56.375 -65.515625 C -56.375 -71.609375 -54.847656 -76.6875 -51.796875 -80.75 C -45.703125 -90.90625 -37.070312 -95.984375 -25.90625 -95.984375 C -18.789062 -95.984375 -13.203125 -94.460938 -9.140625 -91.421875 C 8.128906 -80.242188 26.410156 -72.367188 45.703125 -67.796875 C 65.003906 -63.222656 84.8125 -60.9375 105.125 -60.9375 C 155.914062 -60.9375 207.71875 -71.851562 260.53125 -93.6875 C 313.351562 -115.53125 361.09375 -142.195312 403.75 -173.6875 C 489.070312 -236.664062 550.78125 -308.019531 588.875 -387.75 C 626.96875 -467.488281 646.015625 -544.941406 646.015625 -620.109375 C 646.015625 -684.097656 633.570312 -743.007812 608.6875 -796.84375 C 583.800781 -850.675781 547.992188 -893.59375 501.265625 -925.59375 C 454.546875 -957.59375 398.679688 -973.59375 333.671875 -973.59375 C 318.429688 -973.59375 303.191406 -972.828125 287.953125 -971.296875 C 272.722656 -969.773438 258 -966.984375 243.78125 -962.921875 C 207.207031 -757.742188 188.921875 -549.515625 188.921875 -338.234375 C 188.921875 -314.878906 189.175781 -291.007812 189.6875 -266.625 C 190.195312 -242.25 190.957031 -218.378906 191.96875 -195.015625 C 191.96875 -174.703125 182.320312 -164.039062 163.03125 -163.03125 L 161.5 -163.03125 C 153.375 -163.03125 146.265625 -166.078125 140.171875 -172.171875 C 134.078125 -178.265625 131.03125 -185.375 131.03125 -193.5 C 130.007812 -216.863281 129.242188 -240.222656 128.734375 -263.578125 C 128.234375 -286.941406 127.984375 -310.304688 127.984375 -333.671875 C 127.984375 -537.835938 144.742188 -740.476562 178.265625 -941.59375 C 151.859375 -930.414062 127.988281 -916.953125 106.65625 -901.203125 C 85.320312 -885.460938 68.5625 -866.929688 56.375 -845.609375 C 49.257812 -835.441406 40.117188 -830.359375 28.953125 -830.359375 C 24.890625 -830.359375 20.316406 -831.882812 15.234375 -834.9375 C 5.078125 -839 0 -847.632812 0 -860.84375 C 0 -866.9375 1.015625 -872.015625 3.046875 -876.078125 C 23.359375 -910.609375 50.019531 -938.789062 83.03125 -960.625 C 116.039062 -982.46875 151.847656 -999.484375 190.453125 -1011.671875 C 192.484375 -1021.828125 194.257812 -1031.476562 195.78125 -1040.625 C 197.300781 -1049.769531 199.078125 -1059.421875 201.109375 -1069.578125 C 205.171875 -1085.828125 215.332031 -1093.953125 231.59375 -1093.953125 C 239.71875 -1093.953125 246.570312 -1090.648438 252.15625 -1084.046875 C 257.738281 -1077.441406 260.53125 -1070.078125 260.53125 -1061.953125 C 260.53125 -1048.753906 258.5 -1037.582031 254.4375 -1028.4375 C 268.65625 -1030.46875 282.367188 -1032.242188 295.578125 -1033.765625 C 308.785156 -1035.285156 321.484375 -1036.046875 333.671875 -1036.046875 C 410.867188 -1036.046875 477.398438 -1017 533.265625 -978.90625 C 589.128906 -940.820312 632.296875 -890.035156 662.765625 -826.546875 C 693.242188 -763.066406 708.484375 -693.742188 708.484375 -618.578125 C 708.484375 -533.265625 687.40625 -446.929688 645.25 -359.578125 C 603.09375 -272.222656 534.785156 -194.007812 440.328125 -124.9375 C 393.597656 -90.40625 340.519531 -60.945312 281.09375 -36.5625 C 221.675781 -12.1875 163.019531 0 105.125 0 C 50.28125 0 1.019531 -13.203125 -42.65625 -39.609375 Z M -42.65625 -39.609375 "/></g></g></g></g></g></svg>