<svg xmlns="http://www.w3.org/2000/svg" xmlns:xlink="http://www.w3.org/1999/xlink" width="6250" zoomAndPan="magnify" viewBox="0 0 4687.5 2999.999989" height="4000" preserveAspectRatio="xMidYMid meet" version="1.0"><defs><g/><clipPath id="ff07bc319e"><rect x="0" width="3306" y="0" height="2444"/></clipPath></defs><g transform="matrix(1, 0, 0, 1, 757, 225)"><g clip-path="url(#ff07bc319e)"><g fill="#ffffff" fill-opacity="1"><g transform="translate(0.730687, 1743.842963)"><g><path d="M 1835.734375 -1654.046875 C 1844.867188 -1654.046875 1852.578125 -1650.898438 1858.859375 -1644.609375 C 1865.148438 -1638.328125 1868.296875 -1630.613281 1868.296875 -1621.46875 C 1868.296875 -1612.332031 1865.148438 -1604.617188 1858.859375 -1598.328125 C 1852.578125 -1592.046875 1844.867188 -1588.90625 1835.734375 -1588.90625 C 1747.742188 -1587.757812 1647.1875 -1580.613281 1534.0625 -1567.46875 C 1420.9375 -1554.332031 1304.09375 -1537.191406 1183.53125 -1516.046875 C 1062.976562 -1494.910156 946.710938 -1470.0625 834.734375 -1441.5 C 817.585938 -1369.507812 797.875 -1290.378906 775.59375 -1204.109375 C 753.3125 -1117.835938 729.601562 -1027.847656 704.46875 -934.140625 C 687.320312 -865.585938 669.035156 -794.457031 649.609375 -720.75 C 630.191406 -647.039062 611.34375 -573.050781 593.0625 -498.78125 C 671.90625 -519.351562 751.316406 -539.066406 831.296875 -557.921875 C 911.285156 -576.773438 986.414062 -593.34375 1056.6875 -607.625 C 1126.96875 -621.90625 1187.53125 -632.757812 1238.375 -640.1875 C 1289.226562 -647.613281 1324.941406 -650.757812 1345.515625 -649.625 C 1354.660156 -648.476562 1362.085938 -644.757812 1367.796875 -638.46875 C 1373.503906 -632.1875 1376.359375 -624.476562 1376.359375 -615.34375 C 1375.222656 -606.195312 1371.507812 -598.476562 1365.21875 -592.1875 C 1358.9375 -585.90625 1351.226562 -582.765625 1342.09375 -582.765625 C 1319.238281 -585.054688 1275.8125 -580.769531 1211.8125 -569.90625 C 1147.820312 -559.050781 1071.265625 -544.195312 982.140625 -525.34375 C 893.015625 -506.488281 798.742188 -484.492188 699.328125 -459.359375 C 655.898438 -447.929688 614.191406 -437.078125 574.203125 -426.796875 C 544.492188 -305.671875 517.066406 -188.257812 491.921875 -74.5625 C 466.785156 39.132812 446.21875 144.257812 430.21875 240.8125 C 414.21875 337.375 405.648438 418.796875 404.515625 485.078125 C 404.515625 512.492188 407.082031 540.195312 412.21875 568.1875 C 417.363281 596.1875 429.078125 614.1875 447.359375 622.1875 C 469.066406 631.332031 497.914062 627.90625 533.90625 611.90625 C 569.90625 595.90625 610.1875 571.335938 654.75 538.203125 C 699.320312 505.066406 745.03125 467.929688 791.875 426.796875 C 838.726562 385.660156 884.148438 343.953125 928.140625 301.671875 C 972.140625 259.390625 1011.28125 221.679688 1045.5625 188.546875 C 1054.695312 179.398438 1063.835938 170.539062 1072.984375 161.96875 C 1082.128906 153.40625 1090.695312 144.550781 1098.6875 135.40625 L 1127.828125 107.984375 C 1144.972656 91.984375 1161.539062 76.269531 1177.53125 60.84375 C 1193.53125 45.414062 1207.816406 31.988281 1220.390625 20.5625 C 1237.523438 4.570312 1253.519531 -8.273438 1268.375 -17.984375 C 1283.238281 -27.703125 1296.953125 -26.28125 1309.515625 -13.71875 C 1324.367188 -1.144531 1326.082031 15.421875 1314.65625 35.984375 C 1303.226562 56.554688 1280.945312 89.125 1247.8125 133.6875 C 1242.101562 141.6875 1234.675781 146.257812 1225.53125 147.40625 C 1216.382812 148.550781 1208.382812 146.265625 1201.53125 140.546875 C 1199.25 139.410156 1196.96875 137.695312 1194.6875 135.40625 C 1191.25 138.832031 1187.816406 142.257812 1184.390625 145.6875 C 1180.960938 149.113281 1177.535156 152.546875 1174.109375 155.984375 L 1144.96875 183.40625 C 1136.96875 191.40625 1128.394531 199.972656 1119.25 209.109375 C 1110.113281 218.253906 1100.976562 226.828125 1091.84375 234.828125 C 1006.132812 318.242188 925 394.515625 848.4375 463.640625 C 771.882812 532.773438 701.328125 588.195312 636.765625 629.90625 C 572.203125 671.613281 516.492188 692.46875 469.640625 692.46875 C 451.359375 692.46875 435.363281 689.039062 421.65625 682.1875 C 364.519531 658.1875 337.09375 592.484375 339.375 485.078125 C 340.519531 417.648438 348.519531 337.375 363.375 244.25 C 378.226562 151.125 397.648438 49.140625 421.640625 -61.703125 C 445.640625 -172.546875 471.925781 -287.382812 500.5 -406.21875 C 382.800781 -373.082031 291.382812 -344.226562 226.25 -319.65625 C 161.113281 -295.09375 122.265625 -277.097656 109.703125 -265.671875 C 103.984375 -259.960938 96.554688 -257.109375 87.421875 -257.109375 C 78.273438 -257.109375 70.273438 -260.535156 63.421875 -267.390625 C 57.703125 -273.097656 54.84375 -280.523438 54.84375 -289.671875 C 54.84375 -298.816406 58.273438 -306.816406 65.140625 -313.671875 C 78.847656 -327.378906 107.695312 -343.375 151.6875 -361.65625 C 195.6875 -379.9375 249.679688 -399.078125 313.671875 -419.078125 C 377.660156 -439.078125 446.21875 -459.359375 519.34375 -479.921875 C 538.769531 -558.773438 559.050781 -637.910156 580.1875 -717.328125 C 601.332031 -796.742188 621.617188 -874.726562 641.046875 -951.28125 C 663.898438 -1036.988281 685.609375 -1119.832031 706.171875 -1199.8125 C 726.742188 -1279.800781 745.601562 -1354.078125 762.75 -1422.640625 C 662.1875 -1395.222656 570.484375 -1366.375 487.640625 -1336.09375 C 404.796875 -1305.8125 337.09375 -1274.671875 284.53125 -1242.671875 C 231.96875 -1210.679688 201.113281 -1178.6875 191.96875 -1146.6875 C 189.6875 -1142.113281 189.6875 -1131.828125 191.96875 -1115.828125 C 194.257812 -1099.835938 213.113281 -1079.84375 248.53125 -1055.84375 C 255.382812 -1050.125 259.664062 -1042.976562 261.375 -1034.40625 C 263.09375 -1025.84375 261.671875 -1017.5625 257.109375 -1009.5625 C 250.253906 -1000.425781 241.113281 -995.859375 229.6875 -995.859375 C 222.820312 -995.859375 216.535156 -997.570312 210.828125 -1001 C 165.117188 -1031.84375 138.550781 -1061.832031 131.125 -1090.96875 C 123.695312 -1120.113281 122.835938 -1144.972656 128.546875 -1165.546875 C 139.972656 -1202.109375 166.539062 -1236.382812 208.25 -1268.375 C 249.957031 -1300.375 301.945312 -1330.085938 364.21875 -1357.515625 C 426.5 -1384.941406 493.632812 -1410.363281 565.625 -1433.78125 C 637.613281 -1457.207031 709.035156 -1478.0625 779.890625 -1496.34375 C 786.742188 -1524.914062 792.457031 -1549.484375 797.03125 -1570.046875 C 798.164062 -1579.191406 802.734375 -1586.050781 810.734375 -1590.625 C 818.734375 -1595.195312 826.734375 -1596.910156 834.734375 -1595.765625 C 843.878906 -1593.472656 851.019531 -1588.613281 856.15625 -1581.1875 C 861.300781 -1573.757812 862.726562 -1565.476562 860.4375 -1556.34375 C 858.15625 -1544.914062 855.300781 -1530.628906 851.875 -1513.484375 C 962.71875 -1540.910156 1077.84375 -1564.90625 1197.25 -1585.46875 C 1316.65625 -1606.039062 1431.492188 -1622.328125 1541.765625 -1634.328125 C 1652.035156 -1646.328125 1750.023438 -1652.898438 1835.734375 -1654.046875 Z M 1835.734375 -1654.046875 "/></g></g></g><g fill="#ffffff" fill-opacity="1"><g transform="translate(1454.231554, 1743.842963)"><g><path d="M 1804.875 -1674.609375 C 1812.875 -1670.035156 1818.300781 -1663.460938 1821.15625 -1654.890625 C 1824.007812 -1646.328125 1823.722656 -1638.046875 1820.296875 -1630.046875 C 1811.160156 -1612.898438 1800.59375 -1592.328125 1788.59375 -1568.328125 C 1776.59375 -1544.335938 1763.164062 -1518.0625 1748.3125 -1489.5 C 1711.75 -1416.363281 1667.46875 -1328.945312 1615.46875 -1227.25 C 1563.476562 -1125.550781 1506.628906 -1015.851562 1444.921875 -898.15625 C 1383.222656 -780.457031 1318.945312 -659.898438 1252.09375 -536.484375 C 1185.25 -413.078125 1117.546875 -292.523438 1048.984375 -174.828125 C 965.566406 -30.847656 891.578125 90.84375 827.015625 190.25 C 762.453125 289.664062 705.601562 370.796875 656.46875 433.640625 C 607.332031 496.492188 564.765625 545.0625 528.765625 579.34375 C 492.773438 613.625 462.210938 637.332031 437.078125 650.46875 C 411.941406 663.613281 390.226562 670.1875 371.9375 670.1875 C 363.945312 670.1875 355.953125 669.046875 347.953125 666.765625 C 317.097656 659.898438 294.523438 641.039062 280.234375 610.1875 C 265.953125 579.34375 256.8125 543.632812 252.8125 503.0625 C 248.820312 462.5 247.394531 423.9375 248.53125 387.375 C 249.675781 330.238281 255.960938 259.960938 267.390625 176.546875 C 278.816406 93.128906 293.957031 1.144531 312.8125 -99.40625 C 331.664062 -199.96875 352.804688 -304.238281 376.234375 -412.21875 C 399.660156 -520.207031 423.941406 -626.765625 449.078125 -731.890625 C 474.210938 -837.015625 498.207031 -936.710938 521.0625 -1030.984375 C 543.914062 -1125.253906 563.914062 -1207.816406 581.0625 -1278.671875 C 589.0625 -1309.523438 596.203125 -1337.234375 602.484375 -1361.796875 C 608.765625 -1386.367188 613.617188 -1407.796875 617.046875 -1426.078125 C 633.046875 -1491.210938 641.046875 -1540.0625 641.046875 -1572.625 C 641.046875 -1605.1875 637.898438 -1627.179688 631.609375 -1638.609375 C 625.328125 -1650.035156 621.617188 -1656.320312 620.484375 -1657.46875 C 613.617188 -1662.039062 601.046875 -1661.46875 582.765625 -1655.75 C 564.484375 -1650.039062 539.914062 -1635.1875 509.0625 -1611.1875 C 472.5 -1583.757812 435.363281 -1548.050781 397.65625 -1504.0625 C 359.945312 -1460.070312 324.238281 -1411.789062 290.53125 -1359.21875 C 256.820312 -1306.65625 228.253906 -1253.234375 204.828125 -1198.953125 C 181.398438 -1144.679688 165.398438 -1092.976562 156.828125 -1043.84375 C 148.265625 -994.707031 150.265625 -951.285156 162.828125 -913.578125 C 187.972656 -837.015625 262.820312 -797.59375 387.375 -795.3125 C 396.507812 -795.3125 404.21875 -791.878906 410.5 -785.015625 C 416.789062 -778.160156 419.9375 -770.164062 419.9375 -761.03125 C 419.9375 -753.03125 416.789062 -745.601562 410.5 -738.75 C 404.21875 -731.894531 396.507812 -729.035156 387.375 -730.171875 C 323.382812 -730.171875 271.675781 -738.738281 232.25 -755.875 C 192.820312 -773.019531 162.820312 -793.875 142.25 -818.4375 C 121.6875 -843.007812 107.40625 -867.867188 99.40625 -893.015625 C 83.414062 -939.859375 80.273438 -992.132812 89.984375 -1049.84375 C 99.703125 -1107.550781 117.984375 -1166.6875 144.828125 -1227.25 C 171.679688 -1287.8125 203.675781 -1346.085938 240.8125 -1402.078125 C 277.957031 -1458.066406 316.523438 -1508.914062 356.515625 -1554.625 C 396.515625 -1600.332031 434.222656 -1636.898438 469.640625 -1664.328125 C 518.773438 -1702.035156 558.195312 -1722.03125 587.90625 -1724.3125 C 617.625 -1726.601562 640.476562 -1722.601562 656.46875 -1712.3125 C 712.46875 -1675.75 721.039062 -1575.191406 682.1875 -1410.640625 C 677.613281 -1392.359375 672.179688 -1370.929688 665.890625 -1346.359375 C 659.609375 -1321.796875 653.039062 -1294.085938 646.1875 -1263.234375 C 629.050781 -1198.109375 609.625 -1119.835938 587.90625 -1028.421875 C 566.195312 -937.003906 542.769531 -839.015625 517.625 -734.453125 C 492.488281 -629.898438 468.207031 -523.347656 444.78125 -414.796875 C 421.363281 -306.242188 399.941406 -201.113281 380.515625 -99.40625 C 361.085938 2.289062 345.375 95.128906 333.375 179.109375 C 321.375 263.097656 314.804688 333.085938 313.671875 389.078125 C 313.671875 450.785156 316.8125 496.78125 323.09375 527.0625 C 329.375 557.34375 336.515625 577.335938 344.515625 587.046875 C 352.515625 596.765625 358.800781 602.195312 363.375 603.34375 C 369.082031 604.476562 380.503906 602.1875 397.640625 596.46875 C 414.785156 590.757812 440.210938 572.765625 473.921875 542.484375 C 507.640625 512.203125 551.921875 461.066406 606.765625 389.078125 C 711.890625 251.960938 840.441406 52.566406 992.421875 -209.109375 C 1059.835938 -325.660156 1127.253906 -445.351562 1194.671875 -568.1875 C 1262.097656 -691.03125 1326.375 -811.300781 1387.5 -929 C 1448.632812 -1046.695312 1504.910156 -1156.109375 1556.328125 -1257.234375 C 1607.753906 -1358.367188 1652.320312 -1445.5 1690.03125 -1518.625 C 1704.882812 -1548.34375 1718.3125 -1574.910156 1730.3125 -1598.328125 C 1742.3125 -1621.753906 1752.3125 -1642.039062 1760.3125 -1659.1875 C 1764.882812 -1667.1875 1771.453125 -1672.613281 1780.015625 -1675.46875 C 1788.585938 -1678.320312 1796.875 -1678.035156 1804.875 -1674.609375 Z M 1804.875 -1674.609375 "/></g></g></g></g></g></svg>